<svg width="196" height="516" viewBox="0 0 196 516" fill="none" xmlns="http://www.w3.org/2000/svg">
<g opacity="0.2">
<path d="M74.3278 23.4448C74.3278 22.1421 75.1168 19.6453 75.5114 18.5598L76.8429 14.711L79.2102 10.5661L82.1692 7.30943L84.8323 5.23699L87.3475 3.75668L90.1586 2.4244L93.7094 1.09212L97.7041 0.5L100.663 1.09212L105.398 2.4244L109.392 4.20078L112.795 7.01337L116.642 10.5661L118.417 14.2669L119.897 17.3755L120.785 21.5204L121.228 26.4054L120.785 32.0306L121.672 33.0668H123.152L124.039 34.3991L125.075 36.3235V39.2841L124.631 42.0967L123.744 44.6133L122.856 45.9455V47.4258L122.116 49.6463L121.08 50.9786L120.193 51.4227H118.565L117.678 52.0148L117.234 54.5313L116.642 56.0116L115.31 58.3801V59.5644V62.0809V64.1533L115.902 66.2258L116.346 68.4463L118.565 71.4069L122.56 75.2557L128.478 77.9202L133.656 81.1769L138.983 83.5454L144.013 87.2462L146.528 89.3186L150.523 90.5029L154.665 92.2792L159.992 95.3879L163.69 98.6446L166.797 102.493L169.165 106.638L170.644 111.227L171.68 115.076L172.715 121.737V126.77L175.379 130.915L176.858 135.356L177.598 140.389L179.225 144.238L179.965 148.531L180.853 154.304L182.036 158.153L183.22 162.446L184.847 168.071L186.475 170.44L188.25 175.029L191.209 179.025L193.133 184.355L194.02 189.98L193.133 194.421L194.02 195.309L194.612 199.306V206.707L194.908 211.592V216.181V221.066L194.612 225.803L194.168 231.132L193.725 234.685L194.168 237.794L194.908 240.754L195.5 243.567L194.612 246.232L194.908 248.304V253.041V257.63V263.551V266.808L194.168 268.732L191.653 273.469L189.582 276.578L187.363 279.242L185.883 281.019L183.368 282.203L182.036 282.943L180.409 284.72L178.042 287.088L176.266 287.68L173.899 289.013L172.272 289.309L171.68 287.68V285.756L170.496 284.127L171.236 282.203L172.272 280.427L173.899 278.946L175.083 277.614L175.822 276.578L177.746 275.69L178.486 274.505L180.409 273.025L180.853 270.953L181.445 267.696L181.149 266.364V264.883V262.811V260.146L179.965 258.518L178.929 258.074H177.302L175.822 258.518L174.195 259.554L173.011 261.923L171.236 263.699L170.496 264.439H168.573L167.241 263.699L166.649 263.107L167.241 261.183L168.573 259.258L169.017 258.074L169.904 257.038L171.236 255.113L172.272 254.077L173.307 252.745L174.195 250.969L175.083 249.488L176.266 248.008L177.302 246.38L179.521 244.307L180.261 242.087L180.853 238.978V234.093V229.652L178.486 222.399L176.266 217.958L173.751 214.109L171.088 210.852L168.573 204.339L166.797 199.898L165.17 194.125L164.134 187.759L163.247 184.503L162.655 182.578L160.583 178.581L156.737 172.512L153.63 165.703L150.967 158.301L149.487 155.488L148.156 152.972L147.12 150.159L146.528 146.903L145.64 143.498L144.753 139.057L142.977 136.985V140.241V144.682L142.385 154.008V156.229V159.781V163.186L141.794 167.035L141.054 171.476L139.426 176.657L137.799 179.914L136.615 183.91L135.876 187.315L136.615 189.98L137.799 194.273L138.687 198.269L139.574 204.783L138.983 209.52L138.243 213.517L139.574 217.069L140.758 222.399L141.498 227.284L141.942 231.724L142.385 235.721L142.681 240.902V245.935L143.569 250.82L145.344 257.038L146.528 261.035L147.86 265.772L148.599 268.732L150.375 274.061L151.115 277.614L152.002 281.759L152.742 285.756L153.186 291.677L153.482 295.822L153.926 300.707V304.112V307.22L153.482 311.069L153.038 315.214L152.742 317.582L152.002 321.727L150.375 325.872L148.895 330.313V333.126L149.191 335.642L150.079 338.455L151.115 342.304L151.854 345.56V349.261L152.298 352.518V356.811L152.89 360.067L153.482 363.176L153.926 365.248L154.369 367.173V370.134L153.926 372.946L154.517 376.499L155.997 380.348L157.476 385.529L158.512 391.598V398.703V403.144L158.068 407.881V411.73L157.329 415.875L156.145 421.5L154.517 429.494V436.896L153.778 444.149L153.334 453.031L152.742 458.952L153.038 464.133L154.369 469.018L155.553 473.903L157.181 478.048L157.624 481.305V484.71L158.66 486.93L160.436 491.075L161.767 494.776L163.838 497.884L166.206 500.401L169.904 503.065L172.863 506.026L175.822 507.506L176.266 508.246V510.171L177.006 511.355L176.118 513.131L175.083 513.576L173.751 513.131L172.863 514.02L170.94 514.612L169.608 514.316L168.721 514.908L167.537 515.204L165.91 514.612H165.17H164.134H162.951L162.359 513.872L161.471 512.835H160.583V513.872L159.4 514.908L158.216 515.5H156.441H154.369L152.742 514.612L151.41 513.872L150.523 512.835L148.599 511.947L146.824 510.023L146.232 507.95H145.492H142.385H139.87L136.911 504.842L135.432 502.325L134.84 498.476L135.432 494.776L136.911 492.111V490.631L136.615 488.706L134.84 485.746V482.193L135.432 479.38L136.911 473.607L137.651 466.65V460.136L136.911 451.255L135.432 443.705L131.733 433.343L128.774 425.645L125.815 417.207L124.187 406.845V397.963L124.631 392.486L125.815 387.157L127.886 382.124L128.33 379.163L125.815 374.13L122.56 367.913L119.009 361.252L116.346 355.478L114.275 347.633L111.907 338.455L110.428 330.313L109.244 324.54L107.765 317.731L105.693 311.957L103.77 304.704L102.734 298.783L101.847 290.937L101.551 286.94L100.367 283.831L99.4795 283.091H98H96.0766L95.041 284.276L94.5971 285.608L94.1533 290.345L93.4135 296.71L92.8217 301.595L90.6024 308.849L88.975 315.066L87.0516 320.987L86.3118 326.02L85.1282 332.386L83.6487 338.899L82.1692 344.228L81.5774 348.965L79.9499 354.294L77.5827 359.623L75.6593 363.916L72.9962 368.505L70.3331 372.946L67.8179 376.795L67.522 378.423L67.8179 380.2L68.8536 383.752L70.3331 388.045L71.9605 394.263V400.036V405.513L71.5167 410.694L70.1851 416.023L67.8179 423.573L65.7466 428.754L63.6753 434.823L62.1958 439.116L60.1244 444.297L59.0888 449.33L58.6449 454.511V460.432V466.798L59.2367 472.719L60.7162 476.568V482.193L59.8285 486.338L58.7929 489.447V493.739L59.8285 496.108L60.7162 497.884L60.4203 500.253L59.8285 502.473L58.9408 504.398L57.1654 506.618L55.6859 507.802L54.2064 508.098L52.8748 507.802H51.8391H50.2117L49.324 508.098L48.5842 510.023L47.2527 511.503L45.4772 512.539L44.1457 513.28L43.7018 514.168L42.3703 515.352L40.4469 515.5H37.9317L36.3042 515.056L35.2686 514.168L34.9727 512.687L34.2329 512.983L33.6411 514.02L31.8657 514.612H30.83L29.6464 514.316L28.4628 514.612L27.5751 514.908L26.6874 514.612L25.3558 514.02L24.764 514.168H23.7284L22.3968 513.724H21.6571H21.0653H20.1775L19.5857 512.983L18.5501 511.651L19.2898 510.319V509.283L20.0296 507.654L21.953 505.582L22.8407 504.694L24.4681 503.658L26.3915 502.325L27.871 501.437L29.9423 499.957L31.5698 498.328L32.3096 497.44L33.6411 494.628L35.2686 490.335L37.4879 485.598L38.8194 482.193V480.861L38.3756 480.121V478.936L38.8194 477.308L40.003 475.088L41.0387 471.831L42.2223 468.722L42.6662 465.021V456.88V450.662L42.3703 444.741L41.4825 434.823L40.4469 427.57L39.8551 423.573L38.9674 419.28L38.0797 413.951L37.4879 408.622L37.044 404.625V401.072V397.519L37.4879 392.93L38.3756 388.785L39.4112 382.568L40.7428 377.239L41.6305 374.426L41.4825 370.726V366.877L42.5182 362.732L43.258 356.663L43.8498 351.186L44.2936 345.412L44.8854 341.564L46.5129 336.382V332.534L45.9211 328.685L43.8498 322.171L42.6662 314.474L41.7785 305.148V297.154L42.6662 291.529L43.7018 283.831L44.4416 277.91L45.9211 271.693L48.1404 264.883L50.0637 258.518L51.8391 252.301L53.0228 247.416V240.606L53.9105 231.724L54.7982 225.803L56.1297 219.586L57.4613 213.813L56.8695 209.816V206.855V201.526L57.4613 197.677L58.6449 191.312L60.1244 187.759L60.4203 185.835L60.1244 184.651L58.6449 182.134L57.4613 179.322L55.9818 176.065L54.6502 170.736L53.7625 165.999L53.1707 160.966V155.488V149.419L52.7269 142.906L52.431 138.613L51.8391 137.725L51.0994 139.353L50.5076 141.722L50.0637 143.646L49.0281 148.087L48.4363 151.196L47.4006 153.712L45.7731 157.265L45.3293 158.745L42.0744 165.259L40.151 169.107L37.192 175.769L35.1206 179.618L33.4932 182.282L32.0137 186.427L30.978 192.2L29.7944 197.677L28.3149 201.822L25.9476 207.447L23.8763 211.296L22.1009 214.405L19.5857 218.402L18.1062 220.03L17.0706 221.954L16.0349 224.767L15.739 226.987L15.1472 230.984L14.7033 234.241V236.313L15.2951 240.754L15.739 243.863L16.9226 245.047L19.7337 247.712L21.805 251.561L23.8763 254.965L26.3915 257.482L27.5751 259.406L28.3149 261.331L28.9067 262.515L28.6108 263.403L28.019 264.143L27.2792 264.587L26.3915 264.735L24.764 264.291L23.1366 262.959L21.953 261.775L20.9173 260.739L18.846 257.482L16.9226 257.186L15.591 258.074L14.5554 259.554V263.551L14.1115 265.18V267.548L14.5554 268.732L14.8513 270.657L15.1472 273.025L15.8869 273.913L17.6624 275.098L18.846 275.69L20.6214 276.726L20.9173 278.502L21.953 279.835L23.1366 280.279L24.764 282.203L25.3558 283.831L25.0599 285.016H23.7284V285.904L24.0243 287.384L23.7284 289.013L22.6927 289.753L20.9173 289.013L18.846 287.384H17.9583L16.3308 286.496L14.1115 283.831L11.7443 282.203L9.52504 280.871L7.60167 278.502L6.27011 276.726L4.05083 273.469L2.57132 270.657L1.23976 268.732L0.795903 267.252V263.995V259.998L0.5 255.854V251.709V247.12V244.455V242.531L1.09181 240.606L1.68361 238.238V235.573L1.09181 230.836V225.655L1.23976 221.658V218.254L0.795903 213.813V210.26L0.5 204.783L1.23976 199.898L1.83156 196.197L2.12747 194.421L1.83156 190.424L2.57132 185.687L3.31108 181.838L4.49469 179.618L6.12215 176.805L8.48938 173.4L9.08118 171.476L10.2648 169.255L11.1525 167.183L12.3361 163.334L13.5197 158.449L15.2951 152.676L15.739 147.939L16.3308 145.422L17.2185 142.758L18.1062 140.389L18.846 136.096L19.8816 132.988L20.6214 131.063L21.953 128.251L22.5448 126.77V124.55L22.9886 120.701L23.5804 116.852L24.4681 113.004L25.3558 109.599L26.8354 106.194L28.9067 102.197L32.1616 98.6446L36.4522 94.6477L39.2633 93.1674L42.3703 91.6871L46.6609 89.6147L49.6199 89.1706L51.6912 87.2462L54.9461 84.4336L59.8285 81.9171L65.5986 78.5124L71.0728 75.8478L75.5114 73.0352L77.8786 71.1108L78.7663 69.3344L79.802 66.9659L80.6897 63.5612L80.5417 60.4526V58.5282L80.0979 57.64L78.7663 55.4195L78.0266 53.3471L77.4347 51.2746H76.8429H75.6593H74.7716L74.0319 50.5345L73.2921 49.0542V48.314L72.5524 47.2778L72.1085 45.5014L71.2208 43.577L70.7769 40.9125V36.4715L71.5167 34.2511L72.1085 33.3629H73.1442H74.3278C74.5645 33.3629 74.7223 32.7708 74.7716 32.4747L74.3278 29.07V23.4448Z" fill="white"/>
<path d="M74.3278 23.4448C74.3278 22.1421 75.1168 19.6453 75.5114 18.5598L76.8429 14.711L79.2102 10.5661L82.1692 7.30943L84.8323 5.23699L87.3475 3.75668L90.1586 2.4244L93.7094 1.09212L97.7041 0.5L100.663 1.09212L105.398 2.4244L109.392 4.20078L112.795 7.01337L116.642 10.5661L118.417 14.2669L119.897 17.3755L120.785 21.5204L121.228 26.4054L120.785 32.0306L121.672 33.0668H123.152L124.039 34.3991L125.075 36.3235V39.2841L124.631 42.0967L123.744 44.6133L122.856 45.9455V47.4258L122.116 49.6463L121.08 50.9786L120.193 51.4227H118.565L117.678 52.0148L117.234 54.5313L116.642 56.0116L115.31 58.3801V59.5644V62.0809V64.1533L115.902 66.2258L116.346 68.4463L118.565 71.4069L122.56 75.2557L128.478 77.9202L133.656 81.1769L138.983 83.5454L144.013 87.2462L146.528 89.3186L150.523 90.5029L154.665 92.2792L159.992 95.3879L163.69 98.6446L166.797 102.493L169.165 106.638L170.644 111.227L171.68 115.076L172.715 121.737V126.77L175.379 130.915L176.858 135.356L177.598 140.389L179.225 144.238L179.965 148.531L180.853 154.304L182.036 158.153L183.22 162.446L184.847 168.071L186.475 170.44L188.25 175.029L191.209 179.025L193.133 184.355L194.02 189.98L193.133 194.421L194.02 195.309L194.612 199.306V206.707L194.908 211.592V216.181V221.066L194.612 225.803L194.168 231.132L193.725 234.685L194.168 237.794L194.908 240.754L195.5 243.567L194.612 246.232L194.908 248.304V253.041V257.63V263.551V266.808L194.168 268.732L191.653 273.469L189.582 276.578L187.363 279.242L185.883 281.019L183.368 282.203L182.036 282.943L180.409 284.72L178.042 287.088L176.266 287.68L173.899 289.013L172.272 289.309L171.68 287.68V285.756L170.496 284.127L171.236 282.203L172.272 280.427L173.899 278.946L175.083 277.614L175.822 276.578L177.746 275.69L178.486 274.505L180.409 273.025L180.853 270.953L181.445 267.696L181.149 266.364V264.883V262.811V260.146L179.965 258.518L178.929 258.074H177.302L175.822 258.518L174.195 259.554L173.011 261.923L171.236 263.699L170.496 264.439H168.573L167.241 263.699L166.649 263.107L167.241 261.183L168.573 259.258L169.017 258.074L169.904 257.038L171.236 255.113L172.272 254.077L173.307 252.745L174.195 250.969L175.083 249.488L176.266 248.008L177.302 246.38L179.521 244.307L180.261 242.087L180.853 238.978V234.093V229.652L178.486 222.399L176.266 217.958L173.751 214.109L171.088 210.852L168.573 204.339L166.797 199.898L165.17 194.125L164.134 187.759L163.247 184.503L162.655 182.578L160.583 178.581L156.737 172.512L153.63 165.703L150.967 158.301L149.487 155.488L148.156 152.972L147.12 150.159L146.528 146.903L145.64 143.498L144.753 139.057L142.977 136.985V140.241V144.682L142.385 154.008V156.229V159.781V163.186L141.794 167.035L141.054 171.476L139.426 176.657L137.799 179.914L136.615 183.91L135.876 187.315L136.615 189.98L137.799 194.273L138.687 198.269L139.574 204.783L138.983 209.52L138.243 213.517L139.574 217.069L140.758 222.399L141.498 227.284L141.942 231.724L142.385 235.721L142.681 240.902V245.935L143.569 250.82L145.344 257.038L146.528 261.035L147.86 265.772L148.599 268.732L150.375 274.061L151.115 277.614L152.002 281.759L152.742 285.756L153.186 291.677L153.482 295.822L153.926 300.707V304.112V307.22L153.482 311.069L153.038 315.214L152.742 317.582L152.002 321.727L150.375 325.872L148.895 330.313V333.126L149.191 335.642L150.079 338.455L151.115 342.304L151.854 345.56V349.261L152.298 352.518V356.811L152.89 360.067L153.482 363.176L153.926 365.248L154.369 367.173V370.134L153.926 372.946L154.517 376.499L155.997 380.348L157.476 385.529L158.512 391.598V398.703V403.144L158.068 407.881V411.73L157.329 415.875L156.145 421.5L154.517 429.494V436.896L153.778 444.149L153.334 453.031L152.742 458.952L153.038 464.133L154.369 469.018L155.553 473.903L157.181 478.048L157.624 481.305V484.71L158.66 486.93L160.436 491.075L161.767 494.776L163.838 497.884L166.206 500.401L169.904 503.065L172.863 506.026L175.822 507.506L176.266 508.246V510.171L177.006 511.355L176.118 513.131L175.083 513.576L173.751 513.131L172.863 514.02L170.94 514.612L169.608 514.316L168.721 514.908L167.537 515.204L165.91 514.612H165.17H164.134H162.951L162.359 513.872L161.471 512.835H160.583V513.872L159.4 514.908L158.216 515.5H156.441H154.369L152.742 514.612L151.41 513.872L150.523 512.835L148.599 511.947L146.824 510.023L146.232 507.95H145.492H142.385H139.87L136.911 504.842L135.432 502.325L134.84 498.476L135.432 494.776L136.911 492.111V490.631L136.615 488.706L134.84 485.746V482.193L135.432 479.38L136.911 473.607L137.651 466.65V460.136L136.911 451.255L135.432 443.705L131.733 433.343L128.774 425.645L125.815 417.207L124.187 406.845V397.963L124.631 392.486L125.815 387.157L127.886 382.124L128.33 379.163L125.815 374.13L122.56 367.913L119.009 361.252L116.346 355.478L114.275 347.633L111.907 338.455L110.428 330.313L109.244 324.54L107.765 317.731L105.693 311.957L103.77 304.704L102.734 298.783L101.847 290.937L101.551 286.94L100.367 283.831L99.4795 283.091H98H96.0766L95.041 284.276L94.5971 285.608L94.1533 290.345L93.4135 296.71L92.8217 301.595L90.6024 308.849L88.975 315.066L87.0516 320.987L86.3118 326.02L85.1282 332.386L83.6487 338.899L82.1692 344.228L81.5774 348.965L79.9499 354.294L77.5827 359.623L75.6593 363.916L72.9962 368.505L70.3331 372.946L67.8179 376.795L67.522 378.423L67.8179 380.2L68.8536 383.752L70.3331 388.045L71.9605 394.263V400.036V405.513L71.5167 410.694L70.1851 416.023L67.8179 423.573L65.7466 428.754L63.6753 434.823L62.1958 439.116L60.1244 444.297L59.0888 449.33L58.6449 454.511V460.432V466.798L59.2367 472.719L60.7162 476.568V482.193L59.8285 486.338L58.7929 489.447V493.739L59.8285 496.108L60.7162 497.884L60.4203 500.253L59.8285 502.473L58.9408 504.398L57.1654 506.618L55.6859 507.802L54.2064 508.098L52.8748 507.802H51.8391H50.2117L49.324 508.098L48.5842 510.023L47.2527 511.503L45.4772 512.539L44.1457 513.28L43.7018 514.168L42.3703 515.352L40.4469 515.5H37.9317L36.3042 515.056L35.2686 514.168L34.9727 512.687L34.2329 512.983L33.6411 514.02L31.8657 514.612H30.83L29.6464 514.316L28.4628 514.612L27.5751 514.908L26.6874 514.612L25.3558 514.02L24.764 514.168H23.7284L22.3968 513.724H21.6571H21.0653H20.1775L19.5857 512.983L18.5501 511.651L19.2898 510.319V509.283L20.0296 507.654L21.953 505.582L22.8407 504.694L24.4681 503.658L26.3915 502.325L27.871 501.437L29.9423 499.957L31.5698 498.328L32.3096 497.44L33.6411 494.628L35.2686 490.335L37.4879 485.598L38.8194 482.193V480.861L38.3756 480.121V478.936L38.8194 477.308L40.003 475.088L41.0387 471.831L42.2223 468.722L42.6662 465.021V456.88V450.662L42.3703 444.741L41.4825 434.823L40.4469 427.57L39.8551 423.573L38.9674 419.28L38.0797 413.951L37.4879 408.622L37.044 404.625V401.072V397.519L37.4879 392.93L38.3756 388.785L39.4112 382.568L40.7428 377.239L41.6305 374.426L41.4825 370.726V366.877L42.5182 362.732L43.258 356.663L43.8498 351.186L44.2936 345.412L44.8854 341.564L46.5129 336.382V332.534L45.9211 328.685L43.8498 322.171L42.6662 314.474L41.7785 305.148V297.154L42.6662 291.529L43.7018 283.831L44.4416 277.91L45.9211 271.693L48.1404 264.883L50.0637 258.518L51.8391 252.301L53.0228 247.416V240.606L53.9105 231.724L54.7982 225.803L56.1297 219.586L57.4613 213.813L56.8695 209.816V206.855V201.526L57.4613 197.677L58.6449 191.312L60.1244 187.759L60.4203 185.835L60.1244 184.651L58.6449 182.134L57.4613 179.322L55.9818 176.065L54.6502 170.736L53.7625 165.999L53.1707 160.966V155.488V149.419L52.7269 142.906L52.431 138.613L51.8391 137.725L51.0994 139.353L50.5076 141.722L50.0637 143.646L49.0281 148.087L48.4363 151.196L47.4006 153.712L45.7731 157.265L45.3293 158.745L42.0744 165.259L40.151 169.107L37.192 175.769L35.1206 179.618L33.4932 182.282L32.0137 186.427L30.978 192.2L29.7944 197.677L28.3149 201.822L25.9476 207.447L23.8763 211.296L22.1009 214.405L19.5857 218.402L18.1062 220.03L17.0706 221.954L16.0349 224.767L15.739 226.987L15.1472 230.984L14.7033 234.241V236.313L15.2951 240.754L15.739 243.863L16.9226 245.047L19.7337 247.712L21.805 251.561L23.8763 254.965L26.3915 257.482L27.5751 259.406L28.3149 261.331L28.9067 262.515L28.6108 263.403L28.019 264.143L27.2792 264.587L26.3915 264.735L24.764 264.291L23.1366 262.959L21.953 261.775L20.9173 260.739L18.846 257.482L16.9226 257.186L15.591 258.074L14.5554 259.554V263.551L14.1115 265.18V267.548L14.5554 268.732L14.8513 270.657L15.1472 273.025L15.8869 273.913L17.6624 275.098L18.846 275.69L20.6214 276.726L20.9173 278.502L21.953 279.835L23.1366 280.279L24.764 282.203L25.3558 283.831L25.0599 285.016H23.7284V285.904L24.0243 287.384L23.7284 289.013L22.6927 289.753L20.9173 289.013L18.846 287.384H17.9583L16.3308 286.496L14.1115 283.831L11.7443 282.203L9.52504 280.871L7.60167 278.502L6.27011 276.726L4.05083 273.469L2.57132 270.657L1.23976 268.732L0.795903 267.252V263.995V259.998L0.5 255.854V251.709V247.12V244.455V242.531L1.09181 240.606L1.68361 238.238V235.573L1.09181 230.836V225.655L1.23976 221.658V218.254L0.795903 213.813V210.26L0.5 204.783L1.23976 199.898L1.83156 196.197L2.12747 194.421L1.83156 190.424L2.57132 185.687L3.31108 181.838L4.49469 179.618L6.12215 176.805L8.48938 173.4L9.08118 171.476L10.2648 169.255L11.1525 167.183L12.3361 163.334L13.5197 158.449L15.2951 152.676L15.739 147.939L16.3308 145.422L17.2185 142.758L18.1062 140.389L18.846 136.096L19.8816 132.988L20.6214 131.063L21.953 128.251L22.5448 126.77V124.55L22.9886 120.701L23.5804 116.852L24.4681 113.004L25.3558 109.599L26.8354 106.194L28.9067 102.197L32.1616 98.6446L36.4522 94.6477L39.2633 93.1674L42.3703 91.6871L46.6609 89.6147L49.6199 89.1706L51.6912 87.2462L54.9461 84.4336L59.8285 81.9171L65.5986 78.5124L71.0728 75.8478L75.5114 73.0352L77.8786 71.1108L78.7663 69.3344L79.802 66.9659L80.6897 63.5612L80.5417 60.4526V58.5282L80.0979 57.64L78.7663 55.4195L78.0266 53.3471L77.4347 51.2746H76.8429H75.6593H74.7716L74.0319 50.5345L73.2921 49.0542V48.314L72.5524 47.2778L72.1085 45.5014L71.2208 43.577L70.7769 40.9125V36.4715L71.5167 34.2511L72.1085 33.3629H73.1442H74.3278C74.5645 33.3629 74.7223 32.7708 74.7716 32.4747L74.3278 29.07V23.4448Z" fill="#FFD7D7"/>
</g>
</svg>
